<svg width="36" height="36" viewBox="0 0 36 36" fill="none" xmlns="http://www.w3.org/2000/svg">
<path d="M16.8952 34.6752C17.7639 34.6752 18.469 33.978 18.469 33.0839V2.91659C18.469 2.03677 17.7527 1.32373 16.8952 1.32373H12.1024C11.2337 1.32529 10.5286 2.0225 10.5286 2.91659V33.0824C10.5286 33.9622 11.2448 34.6737 12.1024 34.6737H16.8952V34.6752ZM12.1134 2.91976C12.1134 2.90704 16.8809 2.91659 16.8809 2.91659C16.8666 2.91659 16.8698 33.0839 16.8698 33.0839C16.8698 33.0967 12.1024 33.0872 12.1024 33.0872C12.115 33.0871 12.1134 2.91976 12.1134 2.91976Z" fill="white" stroke="white" stroke-width="0.463276"/>
<path d="M29.2045 34.7277L33.8354 33.4874C34.6754 33.2619 35.1741 32.4059 34.9438 31.542L27.1352 2.40373C26.9081 1.55413 26.0315 1.0507 25.2025 1.27297L20.5717 2.51328C19.7316 2.73878 19.2329 3.59477 19.4632 4.4587L27.2702 33.597C27.5005 34.4467 28.3756 34.9485 29.2045 34.7277ZM25.6011 2.81345C25.5884 2.81667 33.3987 31.9549 33.3987 31.9549C33.4018 31.9676 28.7948 33.1921 28.7948 33.1921C28.8075 33.1889 20.9973 4.05059 20.9973 4.05059C20.9925 4.03948 25.6011 2.81345 25.6011 2.81345Z" fill="white" stroke="white" stroke-width="0.463276"/>
<path d="M7.36668 34.6752C8.23538 34.6752 8.94048 33.9764 8.94048 33.0823V2.91659C8.94048 2.03677 8.22422 1.32373 7.36668 1.32373H2.57381C1.7051 1.32529 1 2.02244 1 2.91659V33.0824C1 33.9622 1.71627 34.6737 2.57381 34.6737H7.36668V34.6752ZM2.58492 2.91976C2.58492 2.90704 7.35234 2.91659 7.35234 2.91659C7.33806 2.91659 7.34123 33.0839 7.34123 33.0839C7.34123 33.0967 2.57375 33.0872 2.57375 33.0872C2.58653 33.0871 2.58492 2.91976 2.58492 2.91976Z" fill="white" stroke="white" stroke-width="0.463276"/>
</svg>
