<svg width="35" height="32" viewBox="0 0 35 32" fill="none" xmlns="http://www.w3.org/2000/svg">
<path d="M1.209 18.9808H4.05988V30.3842C4.05988 31.0562 4.60969 31.606 5.28168 31.606H13.6306C14.3026 31.606 14.8524 31.0562 14.8524 30.3842V22.0353H19.9432V30.3842C19.9432 31.0562 20.493 31.606 21.165 31.606H29.1067C29.7787 31.606 30.3285 31.0562 30.3285 30.3842V18.9808H33.7903C34.279 18.9808 34.727 18.6753 34.9102 18.2273C35.0935 17.7794 34.9917 17.2499 34.6455 16.9037L18.7214 0.755663C18.2531 0.287283 17.4793 0.266944 17.0109 0.735323L0.374154 16.8834C0.00761514 17.2296 -0.0942252 17.759 0.0890443 18.2273C0.272314 18.6957 0.720282 18.9808 1.209 18.9808ZM17.8254 3.34177L30.8579 16.5372H29.1066C28.4347 16.5372 27.8848 17.087 27.8848 17.759V29.1624H22.3868V20.8135C22.3868 20.1415 21.837 19.5917 21.165 19.5917H13.6306C12.9587 19.5917 12.4088 20.1415 12.4088 20.8135V29.1624H6.50348V17.759C6.50348 17.087 5.95367 16.5372 5.28168 16.5372H4.22281L17.8254 3.34177Z" fill="white"/>
</svg>
