<svg width="34" height="30" viewBox="0 0 34 30" fill="none" xmlns="http://www.w3.org/2000/svg">
<path d="M16.9515 29.4001C16.5031 29.4012 16.0588 29.3137 15.6444 29.1427C15.2299 28.9716 14.8534 28.7204 14.5365 28.4035L2.85812 16.7387C1.93558 15.8072 1.20784 14.7017 0.717298 13.4865C0.226758 12.2713 -0.0167711 10.9707 0.00089688 9.66058C0.00978571 8.45994 0.255733 7.27286 0.72465 6.16731C1.19357 5.06177 1.87624 4.05949 2.73357 3.21789C3.5909 2.37628 4.60603 1.71189 5.72083 1.26277C6.83563 0.813643 8.02819 0.588611 9.23019 0.600561C10.4537 0.588251 11.6672 0.821485 12.7988 1.28643C13.9304 1.75138 14.957 2.43856 15.8177 3.30724L16.9515 4.43974L17.8812 3.51109C19.4866 1.86508 21.6348 0.855954 23.928 0.670634C26.2211 0.485313 28.5038 1.13635 30.3533 2.50316C31.406 3.31296 32.274 4.3375 32.8993 5.50855C33.5247 6.67961 33.8931 7.9703 33.98 9.29469C34.0669 10.6191 33.8703 11.9468 33.4033 13.1893C32.9363 14.4319 32.2096 15.5608 31.2716 16.5009L19.3665 28.4035C19.0496 28.7204 18.6731 28.9716 18.2587 29.1427C17.8442 29.3137 17.4 29.4012 16.9515 29.4001ZM9.18484 2.85424C7.38265 2.8524 5.65045 3.55098 4.35476 4.80214C3.6942 5.43696 3.16889 6.19858 2.81038 7.04125C2.45188 7.88392 2.26757 8.79028 2.26854 9.70588C2.2586 10.713 2.44891 11.7121 2.82844 12.6453C3.20796 13.5784 3.76916 14.427 4.47949 15.1419L16.1578 26.8067C16.2632 26.9128 16.3886 26.9971 16.5268 27.0546C16.665 27.112 16.8132 27.1417 16.9628 27.1417C17.1125 27.1417 17.2607 27.112 17.3989 27.0546C17.537 26.9971 17.6624 26.9128 17.7679 26.8067L29.6843 14.8927C30.3838 14.1793 30.9242 13.3261 31.2701 12.3892C31.616 11.4523 31.7595 10.453 31.6912 9.45673C31.6306 8.45029 31.3531 7.4688 30.8775 6.57944C30.402 5.69007 29.7397 4.91383 28.936 4.30384C27.5257 3.26522 25.7854 2.77412 24.0394 2.92205C22.2935 3.06998 20.6609 3.84685 19.4459 5.10792L17.7565 6.84065C17.6511 6.9468 17.5257 7.03105 17.3875 7.08854C17.2494 7.14604 17.1012 7.17564 16.9515 7.17564C16.8018 7.17564 16.6536 7.14604 16.5155 7.08854C16.3773 7.03105 16.2519 6.9468 16.1465 6.84065L14.219 4.91539C12.8914 3.60087 11.0995 2.86055 9.23019 2.85424H9.18484Z" fill="white"/>
</svg>
