<svg width="28" height="32" viewBox="0 0 28 32" fill="none" xmlns="http://www.w3.org/2000/svg">
<path d="M2.95422 1.1926L26.4684 14.7684C27.4163 15.3157 27.4163 16.6843 26.4684 17.2316L2.95422 30.8074C2.00634 31.3547 0.821045 30.6704 0.821045 29.5758V2.42417C0.821045 1.32958 2.00574 0.645304 2.95422 1.1926Z" fill="white"/>
<path d="M26.4684 14.7687L2.95415 1.19283C2.81231 1.11125 2.66559 1.06499 2.51826 1.03516L25.2508 14.1599C26.1987 14.7072 26.1987 16.0757 25.2508 16.623L1.73659 30.1989C1.52412 30.3212 1.3007 30.3742 1.08032 30.3821C1.47968 30.9531 2.27414 31.1997 2.95415 30.8076L26.4684 17.2318C27.4162 16.6845 27.4162 15.316 26.4684 14.7687Z" fill="white"/>
<path d="M2.95422 1.1926L26.4684 14.7684C27.4163 15.3157 27.4163 16.6843 26.4684 17.2316L2.95422 30.8074C2.00634 31.3547 0.821045 30.6704 0.821045 29.5758V2.42417C0.821045 1.32958 2.00574 0.645304 2.95422 1.1926Z" stroke="white" stroke-width="1.38579" stroke-miterlimit="10"/>
</svg>
