<svg width="26" height="29" viewBox="0 0 26 29" fill="none" xmlns="http://www.w3.org/2000/svg">
<path d="M13 14.6412C14.4124 14.6412 15.7931 14.2224 16.9674 13.4377C18.1418 12.653 19.0571 11.5377 19.5976 10.2328C20.1381 8.92793 20.2795 7.49208 20.004 6.10683C19.7284 4.72158 19.0483 3.44914 18.0496 2.45043C17.0509 1.45172 15.7784 0.771586 14.3932 0.496042C13.0079 0.220499 11.5721 0.361918 10.2672 0.902416C8.96231 1.44291 7.84701 2.35822 7.06233 3.53258C6.27765 4.70694 5.85882 6.08761 5.85882 7.5C5.85882 9.39396 6.6112 11.2103 7.95043 12.5496C9.28966 13.8888 11.106 14.6412 13 14.6412ZM13 2.64118C13.961 2.64118 14.9004 2.92614 15.6994 3.46004C16.4984 3.99393 17.1212 4.75278 17.489 5.64061C17.8567 6.52844 17.9529 7.50539 17.7655 8.44791C17.578 9.39043 17.1152 10.2562 16.4357 10.9357C15.7562 11.6152 14.8904 12.078 13.9479 12.2655C13.0054 12.4529 12.0284 12.3567 11.1406 11.989C10.2528 11.6212 9.49393 10.9984 8.96004 10.1994C8.42614 9.40039 8.14118 8.46099 8.14118 7.5C8.14118 6.21136 8.65309 4.9755 9.56429 4.0643C10.4755 3.15309 11.7114 2.64118 13 2.64118Z" fill="#7DFF5D" stroke="#7DFF5D" stroke-width="0.282353"/>
<path d="M22.7807 26.3588C22.5074 24.2544 21.4872 22.3159 19.9032 20.8984C18.2799 19.4458 16.1783 18.6422 14 18.6412L22.7807 26.3588ZM22.7807 26.3588H3.21926C3.49259 24.2544 4.5128 22.3159 6.09682 20.8984C7.7201 19.4458 9.82168 18.6422 12 18.6412C12 18.6412 12 18.6412 12.0001 18.6412H13.9999L22.7807 26.3588ZM14 16.3588H12C9.04517 16.3588 6.21137 17.5326 4.122 19.622C2.03262 21.7114 0.858824 24.5452 0.858824 27.5C0.858824 27.8027 0.979054 28.0929 1.19307 28.3069C1.40708 28.5209 1.69734 28.6412 2 28.6412H24C24.3027 28.6412 24.5929 28.5209 24.8069 28.3069C25.0209 28.0929 25.1412 27.8027 25.1412 27.5C25.1412 24.5452 23.9674 21.7114 21.878 19.622C19.7886 17.5326 16.9548 16.3588 14 16.3588Z" fill="#7DFF5D" stroke="#7DFF5D" stroke-width="0.282353"/>
</svg>
