<svg width="32" height="32" viewBox="0 0 32 32" fill="none" xmlns="http://www.w3.org/2000/svg">
<path fill-rule="evenodd" clip-rule="evenodd" d="M28.4713 27.5302C28.7317 27.2698 28.7317 26.8477 28.4714 26.5873L21.752 19.8668C23.204 18.0055 24.0001 15.732 24.0001 13.3334C24.0001 10.4841 22.8894 7.80802 20.8748 5.79207C18.8601 3.77612 16.1827 2.66675 13.3334 2.66675C10.4841 2.66675 7.80542 3.77612 5.79207 5.79207C3.77612 7.80802 2.66675 10.4841 2.66675 13.3334C2.66675 16.1827 3.77612 18.8614 5.79207 20.8748C7.80542 22.8907 10.4841 24.0001 13.3334 24.0001C15.732 24.0001 18.0055 23.2055 19.8668 21.7533L26.586 28.4727C26.8464 28.733 27.2685 28.733 27.5289 28.4727L28.4713 27.5302ZM18.9893 18.9908C17.4788 20.5014 15.4695 21.3334 13.3334 21.3334C11.196 21.3334 9.18807 20.5014 7.67749 18.9908C6.16545 17.4801 5.33341 15.4708 5.33341 13.3334C5.33341 11.1973 6.16545 9.18807 7.67749 7.67749C9.18807 6.16545 11.196 5.33341 13.3334 5.33341C15.4695 5.33341 17.4788 6.16545 18.9893 7.67749C20.5014 9.18807 21.3334 11.1973 21.3334 13.3334C21.3334 15.4708 20.5014 17.4801 18.9893 18.9908Z" fill="white" fill-opacity="0.95"/>
</svg>
